<svg width="256" height="256" viewBox="0 0 256 256" xmlns="http://www.w3.org/2000/svg">
  <defs>
    <linearGradient id="phi-grad" x1="0%" y1="0%" x2="100%" y2="100%">
      <stop offset="0%" stop-color="#2DD4BF"/>
      <stop offset="50%" stop-color="#A78BFA"/>
      <stop offset="100%" stop-color="#FBBF24"/>
    </linearGradient>
  </defs>
  <rect width="256" height="256" fill="#08060B" rx="48"/>
  <g transform="translate(53.249, 188) scale(0.0878906, -0.0878906)">
    <path fill="url(#phi-grad)" d="M1634 614Q1634 458 1564.0 337.5Q1494 217 1388 139Q1281 61 1148.5 17.0Q1016 -27 889 -31L800 -444H472L561 -31Q321 -19 194.0 97.0Q67 213 67 397Q67 631 225.0 791.0Q383 951 649 1008L675 930Q567 863 496.0 692.5Q425 522 425 324Q425 206 463.5 131.0Q502 56 579 53L729 737Q746 813 784.5 865.5Q823 918 880 952Q932 982 1004.0 998.0Q1076 1014 1163 1014Q1259 1014 1347.0 988.0Q1435 962 1497 914Q1562 863 1598.0 790.5Q1634 718 1634 614ZM1284 707Q1284 818 1253.0 877.5Q1222 937 1176 937Q1137 937 1113.5 909.0Q1090 881 1075 817L907 53Q979 60 1047.5 111.5Q1116 163 1168 250Q1222 340 1253.0 452.5Q1284 565 1284 707Z"/>
  </g>
</svg>
